<svg xmlns="http://www.w3.org/2000/svg" version="1.1" xmlns:xlink="http://www.w3.org/1999/xlink" xmlns:svgjs="http://svgjs.dev/svgjs" width="1500" height="473" viewBox="0 0 1500 473"><g transform="matrix(1,0,0,1,-0.9090909090909918,-0.06064055170324423)"><svg viewBox="0 0 396 125" data-background-color="#ffffff" preserveAspectRatio="xMidYMid meet" height="473" width="1500" xmlns="http://www.w3.org/2000/svg" xmlns:xlink="http://www.w3.org/1999/xlink"><g id="tight-bounds" transform="matrix(1,0,0,1,0.2400000000000091,0.016025515777812416)"><svg viewBox="0 0 395.52 124.96794896844438" height="124.96794896844438" width="395.52"><g><svg viewBox="0 0 656.5478333300562 207.44194005595972" height="124.96794896844438" width="395.52"><g transform="matrix(1,0,0,1,261.0278333300561,64.10257047565753)"><svg viewBox="0 0 395.52 79.23679910464466" height="79.23679910464466" width="395.52"><g id="textblocktransform"><svg viewBox="0 0 395.52 79.23679910464466" height="79.23679910464466" width="395.52" id="textblock"><g><svg viewBox="0 0 395.52 79.23679910464466" height="79.23679910464466" width="395.52"><g transform="matrix(1,0,0,1,0,0)"><svg width="395.52" viewBox="3.5 -35.35 178.69 35.800000000000004" height="79.23679910464466" data-palette-color="#e5e5e5"><path d="M7.95-26.4L7.95-26.4Q7.95-24.5 8.95-23.3 9.95-22.1 11.63-21.33 13.3-20.55 15.3-19.95 17.3-19.35 19.3-18.63 21.3-17.9 22.95-16.82 24.6-15.75 25.63-14.03 26.65-12.3 26.65-9.7L26.65-9.7Q26.65-6.2 24.88-3.95 23.1-1.7 20.15-0.63 17.2 0.45 13.7 0.45L13.7 0.45Q11.2 0.45 8.6-0.08 6-0.6 3.5-1.65L3.5-1.65 3.8-9.85 6.25-9.85 7.1-3.45 6.6-4.3Q8.35-3.5 10.25-3.1 12.15-2.7 13.95-2.7L13.95-2.7Q16.3-2.7 18.25-3.43 20.2-4.15 21.4-5.58 22.6-7 22.6-9.15L22.6-9.15Q22.6-11.15 21.58-12.38 20.55-13.6 18.9-14.4 17.25-15.2 15.25-15.8 13.25-16.4 11.25-17.07 9.25-17.75 7.6-18.8 5.95-19.85 4.93-21.53 3.9-23.2 3.9-25.8L3.9-25.8Q3.9-29 5.48-31.13 7.05-33.25 9.78-34.3 12.5-35.35 15.85-35.35L15.85-35.35Q18.2-35.35 20.75-34.85 23.3-34.35 25.75-33.3L25.75-33.3 25.35-25.45 22.85-25.45 22.1-31.45 22.7-30.85Q21.2-31.5 19.45-31.85 17.7-32.2 15.95-32.2L15.95-32.2Q13.9-32.2 12.05-31.63 10.2-31.05 9.08-29.78 7.95-28.5 7.95-26.4ZM43.6 0.45L43.6 0.45Q40.4 0.45 37.82-1.13 35.25-2.7 33.77-5.7 32.3-8.7 32.3-12.9L32.3-12.9Q32.3-16.55 33.32-19.18 34.35-21.8 36.1-23.5 37.85-25.2 40.12-26.03 42.4-26.85 44.85-26.85L44.85-26.85Q46.85-26.85 49.12-26.3 51.4-25.75 53.1-24.8L53.1-24.8 52.9-18.55 50.2-18.55 49.55-23.25 49.95-22.8Q48.7-23.4 47.3-23.65 45.9-23.9 44.8-23.9L44.8-23.9Q42.2-23.9 40.32-22.58 38.45-21.25 37.45-18.85 36.45-16.45 36.45-13.15L36.45-13.15Q36.45-9.75 37.5-7.4 38.55-5.05 40.37-3.85 42.2-2.65 44.5-2.65L44.5-2.65Q46.3-2.65 48.3-3.4 50.3-4.15 52.45-5.65L52.45-5.65 53.85-3.45Q51.25-1.45 48.65-0.5 46.05 0.45 43.6 0.45ZM70.34-26.85L70.34-26.85Q75.84-26.85 78.97-23.4 82.09-19.95 82.09-13.65L82.09-13.65Q82.09-9.4 80.57-6.23 79.05-3.05 76.25-1.3 73.45 0.45 69.5 0.45L69.5 0.45Q64.09 0.45 61.05-2.93 58-6.3 58-12.65L58-12.65Q58-17.05 59.47-20.23 60.95-23.4 63.72-25.13 66.5-26.85 70.34-26.85ZM70.15-23.9L70.15-23.9Q66.3-23.9 64.25-21 62.2-18.1 62.2-12.85L62.2-12.85Q62.2-7.7 64.15-5.1 66.09-2.5 69.75-2.5L69.75-2.5Q72.4-2.5 74.22-3.83 76.05-5.15 76.97-7.6 77.9-10.05 77.9-13.45L77.9-13.45Q77.9-18.55 75.87-21.23 73.84-23.9 70.15-23.9ZM96.74 0.45L96.74 0.45Q93.44 0.45 91.29-1.6 89.14-3.65 89.14-7.9L89.14-7.9 89.14-23.85 89.64-23.15 85.19-24.1 85.19-26.25 93.14-26.55 93.14-8.6Q93.14-5.6 94.54-4.15 95.94-2.7 98.29-2.7L98.29-2.7Q100.14-2.7 102.29-3.7 104.44-4.7 106.54-6.8L106.54-6.8 106.24-5.9 106.24-23.95 106.74-23.15 102.29-24.1 102.29-26.25 110.24-26.6 110.24-2.45 109.64-3.1 114.14-2.25 114.14-0.05 107.14 0.25 106.54-4.7 107.09-4.5Q104.64-1.95 101.92-0.75 99.19 0.45 96.74 0.45ZM126.14 0.45L126.14 0.45Q123.54 0.45 122.04-1.18 120.54-2.8 120.54-6.1L120.54-6.1 120.54-24.25 121.19-23.6 116.04-23.6 116.04-25.8 121.24-26.55 120.54-25.75 120.54-32.35 124.54-33 124.54-25.75 123.99-26.4 131.84-26.4 131.69-23.6 123.99-23.6 124.54-24.25 124.54-6.65Q124.54-4.55 125.37-3.6 126.19-2.65 127.69-2.65L127.69-2.65Q128.59-2.65 129.64-2.95 130.69-3.25 131.89-3.8L131.89-3.8 132.74-1.5Q129.19 0.45 126.14 0.45ZM147.29 0.45L147.29 0.45Q143.94 0.45 141.36-1.07 138.79-2.6 137.34-5.55 135.89-8.5 135.89-12.75L135.89-12.75Q135.89-17.1 137.39-20.25 138.89-23.4 141.64-25.13 144.39-26.85 148.09-26.85L148.09-26.85Q151.59-26.85 153.86-25.38 156.14-23.9 157.26-21.3 158.39-18.7 158.39-15.35L158.39-15.35Q158.39-14.8 158.34-14.25 158.29-13.7 158.19-12.9L158.19-12.9 138.94-12.9 138.94-15.75 154.69-15.75 154.24-15.45Q154.29-17.7 153.69-19.6 153.09-21.5 151.64-22.65 150.19-23.8 147.79-23.8L147.79-23.8Q145.24-23.8 143.49-22.45 141.74-21.1 140.89-18.75 140.04-16.4 140.04-13.3L140.04-13.3Q140.04-10 140.99-7.63 141.94-5.25 143.76-3.95 145.59-2.65 148.24-2.65L148.24-2.65Q150.09-2.65 152.29-3.38 154.49-4.1 156.84-5.6L156.84-5.6 158.29-3.35Q155.49-1.45 152.69-0.5 149.89 0.45 147.29 0.45ZM175.49 0L162.74 0 162.74-2.15 167.14-3.1 166.64-2.35 166.64-23.9 167.19-23.15 162.74-24.1 162.74-26.25 169.74-26.6 170.28-21.7 169.74-21.9Q171.99-24.25 174.14-25.55 176.28-26.85 178.84-26.85L178.84-26.85Q180.44-26.85 182.19-26.35L182.19-26.35 181.89-19.05 179.39-19.05 178.78-24.3 179.24-23.4Q178.89-23.5 178.49-23.55 178.09-23.6 177.69-23.6L177.69-23.6Q175.69-23.6 173.81-22.4 171.94-21.2 170.24-19.3L170.24-19.3 170.64-20.5 170.64-2.35 170.03-3.1 175.49-2.15 175.49 0Z" opacity="1" transform="matrix(1,0,0,1,0,0)" fill="#e5e5e5" class="wordmark-text-0" data-fill-palette-color="primary" id="text-0"></path></svg></g></svg></g></svg></g></svg></g><g><svg viewBox="0 0 242.32192674462806 207.44194005595972" height="207.44194005595972" width="242.32192674462806"><g><svg xmlns="http://www.w3.org/2000/svg" xmlns:xlink="http://www.w3.org/1999/xlink" version="1.1" x="0" y="0" viewBox="14.44 19.502 70.32900019582911 60.20579498855517" enable-background="new 0 0 99.21 99.21" xml:space="preserve" height="207.44194005595972" width="242.32192674462806" class="icon-icon-0" data-fill-palette-color="accent" id="icon-0"><g fill="#000000" data-fill-palette-color="accent"><polygon points="66.401,43.151 66.076,42.491 64.469,39.23 62.862,42.491 62.537,43.151 61.809,43.257 58.209,43.781    60.815,46.327 61.342,46.841 61.217,47.565 60.604,51.155 63.817,49.463 64.469,49.119 65.121,49.463 68.335,51.155 67.721,47.565    67.597,46.841 68.123,46.327 70.729,43.781 67.13,43.257  " fill="#000000" data-fill-palette-color="accent"></polygon><path d="M76.266 19.502H22.944C18.267 19.502 14.44 23.329 14.44 28.006V62.145C14.44 66.822 18.267 70.649 22.944 70.649H24.906L32.182 79.046C33.259 80.173 34.253 79.825 34.393 78.273L34.417 70.67V70.649H76.265C80.941 70.649 84.769 66.822 84.769 62.145V28.006C84.77 23.329 80.941 19.502 76.266 19.502M41.479 57.369L33.287 53.062 25.095 57.369 26.659 48.244 20.03 41.78 29.19 40.449 33.286 32.149 37.383 40.449 46.542 41.78 39.914 48.244zM71.086 48.244L72.648 57.369 64.47 53.062 56.291 57.369 57.853 48.244 51.237 41.78 60.381 40.449 64.471 32.149 68.56 40.449 77.704 41.78z" fill="#000000" data-fill-palette-color="accent"></path></g></svg></g></svg></g></svg></g><defs></defs></svg><rect width="395.52" height="124.96794896844438" fill="none" stroke="none" visibility="hidden"></rect></g></svg></g></svg>